<svg width="24" height="24" viewBox="0 0 24 24" fill="none" xmlns="http://www.w3.org/2000/svg">
<path d="M5 6C5 4.34315 6.34315 3 8 3H16C17.6569 3 19 4.34315 19 6V18C19 19.6569 17.6569 21 16 21H8C6.34315 21 5 19.6569 5 18V6Z" stroke="#71C2FF" stroke-width="2"/>
<path d="M16 3H15.8889C14.9684 3 14.2222 3.74619 14.2222 4.66667C14.2222 4.85076 14.073 5 13.8889 5H10.1111C9.92702 5 9.77778 4.85076 9.77778 4.66667C9.77778 3.74619 9.03159 3 8.11111 3H8" stroke="#71C2FF" stroke-width="2"/>
<path d="M15 11L11.25 15L9 13.1818" stroke="white" stroke-width="2" stroke-linecap="round" stroke-linejoin="round"/>
</svg>
